# xmcd
#
# Track frame offsets:
#	150
#	17410
#	33834
#	46840
#	62137
#	78649
#	94700
#	114392
#	125749
#	146267
#	163031
#	175266
#	187575
#
# Disc length: 2790 seconds
#
# Revision: 1
# Processed by: cddbd v1.5.2PL0 Copyright (c) Steve Scherf et al.
# Submitted via: EZCDAudioConverter 6.0.2.1
#
DISCID=9c0ae40d
DTITLE=Hayseed Dixie - Free Your Mind and Your Grass Will Follow
DYEAR=2017
DGENRE=Bluegrass
TTITLE0=Buffalo Soldier
TTITLE1=What's Going On
TTITLE2=Oliver's Army
TTITLE3=Move It In The Night
TTITLE4=Ball Of Confusion
TTITLE5=So Quickly We Forget
TTITLE6=The Ballad Of Curtis Loew
TTITLE7=Black Or White
TTITLE8=Vom Selben Stern
TTITLE9=A Change Is Gonna Come
TTITLE10=When The World Gets Small
TTITLE11=Love Train
TTITLE12=Ain't No Country Big Enough
EXTD=
EXTT0=
EXTT1=
EXTT2=
EXTT3=
EXTT4=
EXTT5=
EXTT6=
EXTT7=
EXTT8=
EXTT9=
EXTT10=
EXTT11=
EXTT12=
PLAYORDER=
